<?xml version="1.0" encoding="UTF-8" standalone="no"?>
<!DOCTYPE svg PUBLIC "-//W3C//DTD SVG 1.1//EN" "http://www.w3.org/Graphics/SVG/1.1/DTD/svg11.dtd">
<svg width="100%" height="100%" viewBox="0 0 128 128" version="1.1" xmlns="http://www.w3.org/2000/svg" xmlns:xlink="http://www.w3.org/1999/xlink" xml:space="preserve" xmlns:serif="http://www.serif.com/" style="fill-rule:evenodd;clip-rule:evenodd;stroke-linejoin:round;stroke-miterlimit:2;">
    <g transform="matrix(1,0,0,1,-319.573,-330.158)">
        <g id="Layer0_288_MEMBER_1_FILL" transform="matrix(4.55408,0,0,4.50965,-4425.69,-2636.33)">
            <path d="M1060.25,660C1060.12,659.833 1059.98,659.7 1059.85,659.6C1058.85,658.733 1057.7,658.3 1056.4,658.3L1054.55,658.3C1053.25,658.3 1052.1,658.75 1051.1,659.65L1051.05,659.7C1050.12,660.533 1049.53,661.617 1049.3,662.95C1049.27,663.05 1049.25,663.167 1049.25,663.3L1048.75,667.55L1048.75,667.6C1048.72,667.6 1048.7,667.617 1048.7,667.65C1048.23,668.217 1047.88,668.867 1047.65,669.6L1047.65,669.75C1047.38,670.383 1047.25,671.1 1047.25,671.9L1047.25,672.4C1047.25,672.8 1047.28,673.167 1047.35,673.5L1047.35,673.6C1047.38,673.833 1047.43,674.067 1047.5,674.3C1047.73,675.2 1048.17,676.067 1048.8,676.9L1048.85,676.95L1049.25,680.9C1049.25,680.933 1049.27,680.983 1049.3,681.05C1049.53,682.317 1050.1,683.4 1051,684.3C1051.03,684.3 1051.07,684.317 1051.1,684.35C1052.1,685.25 1053.25,685.7 1054.55,685.7L1056.4,685.7C1057.7,685.7 1058.87,685.25 1059.9,684.35C1060.93,683.383 1061.52,682.267 1061.65,681L1062,679.4C1062,679.367 1062.02,679.333 1062.05,679.3C1062.12,678.667 1062.2,678.033 1062.3,677.4L1062.3,677.35C1063.07,676.383 1063.6,675.317 1063.9,674.15C1064.03,673.983 1064.15,673.8 1064.25,673.6L1064.3,673.55C1064.57,673.083 1064.73,672.617 1064.8,672.15C1064.83,671.85 1064.82,671.583 1064.75,671.35L1064.55,670.6C1064.48,670.4 1064.42,670.233 1064.35,670.1C1064.15,669.767 1063.92,669.467 1063.65,669.2C1063.58,669.167 1063.55,669.133 1063.55,669.1C1063.28,668.4 1062.92,667.75 1062.45,667.15C1062.42,667.117 1062.4,667.083 1062.4,667.05C1062.3,666.25 1062.18,665.467 1062.05,664.7C1062.02,664.667 1062,664.633 1062,664.6L1061.65,663.05C1061.55,661.883 1061.08,660.867 1060.25,660M1058.55,661.1L1058.55,661.15C1059.22,661.75 1059.58,662.467 1059.65,663.3L1059.85,664.1L1060.05,665.05C1060.22,665.983 1060.37,666.933 1060.5,667.9C1060.6,668.067 1060.72,668.217 1060.85,668.35C1061.28,668.917 1061.6,669.55 1061.8,670.25L1062.2,670.6C1062.37,670.767 1062.5,670.933 1062.6,671.1L1062.8,671.85C1062.77,672.083 1062.68,672.317 1062.55,672.55C1062.52,672.583 1062.48,672.633 1062.45,672.7C1062.38,672.767 1062.32,672.85 1062.25,672.95L1062,673.25C1061.83,674.317 1061.42,675.267 1060.75,676.1C1060.65,676.233 1060.53,676.35 1060.4,676.45C1060.3,677.317 1060.18,678.15 1060.05,678.95L1059.85,679.85L1059.65,680.7C1059.58,681.533 1059.22,682.25 1058.55,682.85C1057.92,683.417 1057.2,683.7 1056.4,683.7L1054.55,683.7C1053.75,683.7 1053.03,683.417 1052.4,682.85C1051.8,682.25 1051.42,681.517 1051.25,680.65L1051.2,680L1050.75,676.1C1050.62,675.967 1050.5,675.833 1050.4,675.7C1049.93,675.1 1049.62,674.467 1049.45,673.8C1049.38,673.633 1049.33,673.45 1049.3,673.25C1049.27,672.983 1049.25,672.7 1049.25,672.4L1049.25,671.9C1049.25,671.3 1049.35,670.75 1049.55,670.25L1049.55,670.2C1049.72,669.667 1049.98,669.183 1050.35,668.75C1050.45,668.583 1050.55,668.433 1050.65,668.3L1051.2,664L1051.25,663.35L1051.25,663.3C1051.42,662.433 1051.8,661.717 1052.4,661.15C1053.03,660.583 1053.75,660.3 1054.55,660.3L1056.4,660.3C1057.2,660.3 1057.92,660.567 1058.55,661.1Z" style="fill:rgb(117,140,142);fill-rule:nonzero;"/>
            <path d="M1059.85,679.85C1059.82,679.883 1059.8,679.933 1059.8,680C1059.57,680.367 1059.25,680.717 1058.85,681.05C1058.18,681.617 1057.4,681.9 1056.5,681.9L1054.5,681.9C1053.6,681.9 1052.78,681.617 1052.05,681.05C1051.68,680.717 1051.4,680.367 1051.2,680L1051.25,680.65C1051.42,681.517 1051.8,682.25 1052.4,682.85C1053.03,683.417 1053.75,683.7 1054.55,683.7L1056.4,683.7C1057.2,683.7 1057.92,683.417 1058.55,682.85C1059.22,682.25 1059.58,681.533 1059.65,680.7L1059.85,679.85M1057.85,670.7C1057.55,670.367 1057.17,670.2 1056.7,670.2L1049.55,670.2L1049.55,670.25C1049.35,670.75 1049.25,671.3 1049.25,671.9L1049.25,672.4C1049.25,672.7 1049.27,672.983 1049.3,673.25C1049.33,673.45 1049.38,673.633 1049.45,673.8L1056.7,673.8C1057.17,673.8 1057.55,673.617 1057.85,673.25C1058.22,672.883 1058.4,672.467 1058.4,672C1058.4,671.5 1058.22,671.067 1057.85,670.7M1058.55,661.15L1058.55,661.1C1057.92,660.567 1057.2,660.3 1056.4,660.3L1054.55,660.3C1053.75,660.3 1053.03,660.583 1052.4,661.15C1051.8,661.717 1051.42,662.433 1051.25,663.3L1051.25,663.35L1051.2,664C1051.4,663.6 1051.68,663.25 1052.05,662.95C1052.78,662.383 1053.6,662.1 1054.5,662.1L1056.5,662.1C1057.4,662.1 1058.18,662.367 1058.85,662.9L1058.85,662.95C1059.25,663.25 1059.57,663.6 1059.8,664C1059.8,664.033 1059.82,664.067 1059.85,664.1L1059.65,663.3C1059.58,662.467 1059.22,661.75 1058.55,661.15Z" style="fill:rgb(231,76,60);fill-rule:nonzero;"/>
            <path d="M1056.7,678.3C1056.53,678.333 1056.35,678.35 1056.15,678.35C1054.25,678.35 1052.62,677.767 1051.25,676.6C1051.05,676.433 1050.88,676.267 1050.75,676.1L1051.2,680C1051.4,680.367 1051.68,680.717 1052.05,681.05C1052.78,681.617 1053.6,681.9 1054.5,681.9L1056.5,681.9C1057.4,681.9 1058.18,681.617 1058.85,681.05C1059.25,680.717 1059.57,680.367 1059.8,680C1059.8,679.933 1059.82,679.883 1059.85,679.85L1060.05,678.95C1060.18,678.15 1060.3,677.317 1060.4,676.45C1060.37,676.517 1060.32,676.567 1060.25,676.6C1059.82,677.067 1059.32,677.45 1058.75,677.75C1058.12,678.05 1057.43,678.233 1056.7,678.3M1054.45,666.15C1054.98,666.017 1055.55,665.95 1056.15,665.95C1056.35,665.95 1056.53,665.983 1056.7,666.05C1056.87,666.05 1057.03,666.067 1057.2,666.1C1057.93,666.2 1058.62,666.45 1059.25,666.85C1059.28,666.917 1059.33,666.967 1059.4,667C1059.7,667.2 1059.98,667.433 1060.25,667.7C1060.32,667.767 1060.4,667.833 1060.5,667.9C1060.37,666.933 1060.22,665.983 1060.05,665.05L1059.85,664.1C1059.82,664.067 1059.8,664.033 1059.8,664C1059.57,663.6 1059.25,663.25 1058.85,662.95L1058.85,662.9C1058.18,662.367 1057.4,662.1 1056.5,662.1L1054.5,662.1C1053.6,662.1 1052.78,662.383 1052.05,662.95C1051.68,663.25 1051.4,663.6 1051.2,664L1050.65,668.3C1050.85,668.1 1051.05,667.9 1051.25,667.7C1052.18,666.9 1053.25,666.383 1054.45,666.15Z" style="fill:rgb(137,164,166);fill-rule:nonzero;"/>
            <path d="M1056.15,665.95C1055.55,665.95 1054.98,666.017 1054.45,666.15C1053.25,666.383 1052.18,666.9 1051.25,667.7C1051.05,667.9 1050.85,668.1 1050.65,668.3C1050.55,668.433 1050.45,668.583 1050.35,668.75C1049.98,669.183 1049.72,669.667 1049.55,670.2L1056.7,670.2C1057.17,670.2 1057.55,670.367 1057.85,670.7C1058.22,671.067 1058.4,671.5 1058.4,672C1058.4,672.467 1058.22,672.883 1057.85,673.25C1057.55,673.617 1057.17,673.8 1056.7,673.8L1049.45,673.8C1049.62,674.467 1049.93,675.1 1050.4,675.7C1050.5,675.833 1050.62,675.967 1050.75,676.1C1050.88,676.267 1051.05,676.433 1051.25,676.6C1052.62,677.767 1054.25,678.35 1056.15,678.35C1056.35,678.35 1056.53,678.333 1056.7,678.3C1057.43,678.233 1058.12,678.05 1058.75,677.75C1059.32,677.45 1059.82,677.067 1060.25,676.6C1060.32,676.567 1060.37,676.517 1060.4,676.45C1060.53,676.35 1060.65,676.233 1060.75,676.1C1061.42,675.267 1061.83,674.317 1062,673.25L1062.25,672.95C1062.32,672.85 1062.38,672.767 1062.45,672.7C1062.48,672.633 1062.52,672.583 1062.55,672.55C1062.68,672.317 1062.77,672.083 1062.8,671.85L1062.6,671.1C1062.5,670.933 1062.37,670.767 1062.2,670.6L1061.8,670.25C1061.6,669.55 1061.28,668.917 1060.85,668.35C1060.72,668.217 1060.6,668.067 1060.5,667.9C1060.4,667.833 1060.32,667.767 1060.25,667.7C1059.98,667.433 1059.7,667.2 1059.4,667C1059.33,666.967 1059.28,666.917 1059.25,666.85C1058.62,666.45 1057.93,666.2 1057.2,666.1C1057.03,666.067 1056.87,666.05 1056.7,666.05C1056.53,665.983 1056.35,665.95 1056.15,665.95Z" style="fill:rgb(163,195,198);fill-rule:nonzero;"/>
        </g>
    </g>
</svg>
