<?xml version="1.0" encoding="UTF-8" standalone="no"?>
<!DOCTYPE svg PUBLIC "-//W3C//DTD SVG 1.1//EN" "http://www.w3.org/Graphics/SVG/1.1/DTD/svg11.dtd">
<svg width="100%" height="100%" viewBox="0 0 128 128" version="1.1" xmlns="http://www.w3.org/2000/svg" xmlns:xlink="http://www.w3.org/1999/xlink" xml:space="preserve" xmlns:serif="http://www.serif.com/" style="fill-rule:evenodd;clip-rule:evenodd;stroke-linejoin:round;stroke-miterlimit:2;">
    <g transform="matrix(1,0,0,1,-319.573,-327.94)">
        <g id="Layer0_290_MEMBER_1_FILL" transform="matrix(3.10756,0,0,3.10756,-3295.88,-1697.42)">
            <g>
                <path d="M1184.4,658.3L1182.55,658.3C1181.25,658.3 1180.1,658.75 1179.1,659.65L1179.05,659.7C1178.12,660.533 1177.53,661.617 1177.3,662.95C1177.27,663.05 1177.25,663.167 1177.25,663.3L1176.75,667.55L1176.75,667.6C1176.72,667.6 1176.7,667.617 1176.7,667.65C1176.23,668.217 1175.88,668.867 1175.65,669.6L1175.65,669.75C1175.38,670.383 1175.25,671.1 1175.25,671.9L1175.25,672.4C1175.25,672.8 1175.28,673.167 1175.35,673.5L1175.35,673.6C1175.38,673.833 1175.43,674.067 1175.5,674.3C1175.73,675.2 1176.17,676.067 1176.8,676.9L1176.85,676.95L1177.25,680.9C1177.25,680.933 1177.27,680.983 1177.3,681.05C1177.53,682.317 1178.1,683.4 1179,684.3C1179.03,684.3 1179.07,684.317 1179.1,684.35C1180.1,685.25 1181.25,685.7 1182.55,685.7L1184.4,685.7C1185.7,685.7 1186.87,685.25 1187.9,684.35C1188.93,683.383 1189.52,682.267 1189.65,681L1190,679.4C1190,679.367 1190.02,679.333 1190.05,679.3C1190.12,678.667 1190.2,678.033 1190.3,677.4L1190.3,677.35C1191.07,676.383 1191.6,675.317 1191.9,674.15C1192.03,673.983 1192.15,673.8 1192.25,673.6L1192.3,673.55C1192.57,673.083 1192.73,672.617 1192.8,672.15C1192.83,671.85 1192.82,671.583 1192.75,671.35L1192.55,670.6C1192.48,670.4 1192.42,670.233 1192.35,670.1C1192.15,669.767 1191.92,669.467 1191.65,669.2C1191.58,669.167 1191.55,669.133 1191.55,669.1C1191.28,668.4 1190.92,667.75 1190.45,667.15C1190.42,667.117 1190.4,667.083 1190.4,667.05C1190.3,666.25 1190.18,665.467 1190.05,664.7C1190.02,664.667 1190,664.633 1190,664.6L1189.65,663.05C1189.55,661.883 1189.08,660.867 1188.25,660C1188.12,659.833 1187.98,659.7 1187.85,659.6C1186.85,658.733 1185.7,658.3 1184.4,658.3M1180.4,661.15C1181.03,660.583 1181.75,660.3 1182.55,660.3L1184.4,660.3C1185.2,660.3 1185.92,660.567 1186.55,661.1L1186.55,661.15C1187.22,661.75 1187.58,662.467 1187.65,663.3L1187.85,664.1L1188.05,665.05C1188.22,665.983 1188.37,666.933 1188.5,667.9C1188.6,668.067 1188.72,668.217 1188.85,668.35C1189.28,668.917 1189.6,669.55 1189.8,670.25L1190.2,670.6C1190.37,670.767 1190.5,670.933 1190.6,671.1L1190.8,671.85C1190.77,672.083 1190.68,672.317 1190.55,672.55C1190.52,672.583 1190.48,672.633 1190.45,672.7C1190.38,672.767 1190.32,672.85 1190.25,672.95L1190,673.25C1189.83,674.317 1189.42,675.267 1188.75,676.1C1188.65,676.233 1188.53,676.35 1188.4,676.45C1188.3,677.317 1188.18,678.15 1188.05,678.95L1187.85,679.85L1187.65,680.7C1187.58,681.533 1187.22,682.25 1186.55,682.85C1185.92,683.417 1185.2,683.7 1184.4,683.7L1182.55,683.7C1181.75,683.7 1181.03,683.417 1180.4,682.85C1179.8,682.25 1179.42,681.517 1179.25,680.65L1179.2,680L1178.75,676.1C1178.62,675.967 1178.5,675.833 1178.4,675.7C1177.93,675.1 1177.62,674.467 1177.45,673.8C1177.38,673.633 1177.33,673.45 1177.3,673.25C1177.27,672.983 1177.25,672.7 1177.25,672.4L1177.25,671.9C1177.25,671.3 1177.35,670.75 1177.55,670.25L1177.55,670.2C1177.72,669.667 1177.98,669.183 1178.35,668.75C1178.45,668.583 1178.55,668.433 1178.65,668.3L1179.2,664L1179.25,663.35L1179.25,663.3C1179.42,662.433 1179.8,661.717 1180.4,661.15Z" style="fill:rgb(114,114,114);fill-rule:nonzero;"/>
                <path d="M1187.85,679.85C1187.82,679.883 1187.8,679.933 1187.8,680C1187.57,680.367 1187.25,680.717 1186.85,681.05C1186.18,681.617 1185.4,681.9 1184.5,681.9L1182.5,681.9C1181.6,681.9 1180.78,681.617 1180.05,681.05C1179.68,680.717 1179.4,680.367 1179.2,680L1179.25,680.65C1179.42,681.517 1179.8,682.25 1180.4,682.85C1181.03,683.417 1181.75,683.7 1182.55,683.7L1184.4,683.7C1185.2,683.7 1185.92,683.417 1186.55,682.85C1187.22,682.25 1187.58,681.533 1187.65,680.7L1187.85,679.85M1182.55,660.3C1181.75,660.3 1181.03,660.583 1180.4,661.15C1179.8,661.717 1179.42,662.433 1179.25,663.3L1179.25,663.35L1179.2,664C1179.4,663.6 1179.68,663.25 1180.05,662.95C1180.78,662.383 1181.6,662.1 1182.5,662.1L1184.5,662.1C1185.4,662.1 1186.18,662.367 1186.85,662.9L1186.85,662.95C1187.25,663.25 1187.57,663.6 1187.8,664C1187.8,664.033 1187.82,664.067 1187.85,664.1L1187.65,663.3C1187.58,662.467 1187.22,661.75 1186.55,661.15L1186.55,661.1C1185.92,660.567 1185.2,660.3 1184.4,660.3L1182.55,660.3Z" style="fill:rgb(46,204,113);fill-rule:nonzero;"/>
                <path d="M1188.4,676.45C1188.37,676.517 1188.32,676.567 1188.25,676.6C1187.82,677.067 1187.32,677.45 1186.75,677.75C1186.12,678.05 1185.43,678.233 1184.7,678.3C1184.53,678.333 1184.35,678.35 1184.15,678.35C1182.25,678.35 1180.62,677.767 1179.25,676.6C1179.05,676.433 1178.88,676.267 1178.75,676.1L1179.2,680C1179.4,680.367 1179.68,680.717 1180.05,681.05C1180.78,681.617 1181.6,681.9 1182.5,681.9L1184.5,681.9C1185.4,681.9 1186.18,681.617 1186.85,681.05C1187.25,680.717 1187.57,680.367 1187.8,680C1187.8,679.933 1187.82,679.883 1187.85,679.85L1188.05,678.95C1188.18,678.15 1188.3,677.317 1188.4,676.45M1182.5,662.1C1181.6,662.1 1180.78,662.383 1180.05,662.95C1179.68,663.25 1179.4,663.6 1179.2,664L1178.65,668.3C1178.85,668.1 1179.05,667.9 1179.25,667.7C1180.18,666.9 1181.25,666.383 1182.45,666.15C1182.98,666.017 1183.55,665.95 1184.15,665.95C1184.35,665.95 1184.53,665.983 1184.7,666.05C1184.87,666.05 1185.03,666.067 1185.2,666.1C1185.93,666.2 1186.62,666.45 1187.25,666.85C1187.28,666.917 1187.33,666.967 1187.4,667C1187.7,667.2 1187.98,667.433 1188.25,667.7C1188.32,667.767 1188.4,667.833 1188.5,667.9C1188.37,666.933 1188.22,665.983 1188.05,665.05L1187.85,664.1C1187.82,664.067 1187.8,664.033 1187.8,664C1187.57,663.6 1187.25,663.25 1186.85,662.95L1186.85,662.9C1186.18,662.367 1185.4,662.1 1184.5,662.1L1182.5,662.1Z" style="fill:rgb(170,170,170);fill-rule:nonzero;"/>
                <path d="M1184.15,665.95C1183.55,665.95 1182.98,666.017 1182.45,666.15C1181.25,666.383 1180.18,666.9 1179.25,667.7C1179.05,667.9 1178.85,668.1 1178.65,668.3C1178.55,668.433 1178.45,668.583 1178.35,668.75C1177.98,669.183 1177.72,669.667 1177.55,670.2L1177.55,670.25C1177.35,670.75 1177.25,671.3 1177.25,671.9L1177.25,672.4C1177.25,672.7 1177.27,672.983 1177.3,673.25C1177.33,673.45 1177.38,673.633 1177.45,673.8C1177.62,674.467 1177.93,675.1 1178.4,675.7C1178.5,675.833 1178.62,675.967 1178.75,676.1C1178.88,676.267 1179.05,676.433 1179.25,676.6C1180.62,677.767 1182.25,678.35 1184.15,678.35C1184.35,678.35 1184.53,678.333 1184.7,678.3C1185.43,678.233 1186.12,678.05 1186.75,677.75C1187.32,677.45 1187.82,677.067 1188.25,676.6C1188.32,676.567 1188.37,676.517 1188.4,676.45C1188.53,676.35 1188.65,676.233 1188.75,676.1C1189.42,675.267 1189.83,674.317 1190,673.25L1190.25,672.95C1190.32,672.85 1190.38,672.767 1190.45,672.7C1190.48,672.633 1190.52,672.583 1190.55,672.55C1190.68,672.317 1190.77,672.083 1190.8,671.85L1190.6,671.1C1190.5,670.933 1190.37,670.767 1190.2,670.6L1189.8,670.25C1189.6,669.55 1189.28,668.917 1188.85,668.35C1188.72,668.217 1188.6,668.067 1188.5,667.9C1188.4,667.833 1188.32,667.767 1188.25,667.7C1187.98,667.433 1187.7,667.2 1187.4,667C1187.33,666.967 1187.28,666.917 1187.25,666.85C1186.62,666.45 1185.93,666.2 1185.2,666.1C1185.03,666.067 1184.87,666.05 1184.7,666.05C1184.53,665.983 1184.35,665.95 1184.15,665.95M1189,670C1189,670.3 1188.9,670.533 1188.7,670.7C1188.5,670.9 1188.27,671 1188,671C1187.7,671 1187.45,670.9 1187.25,670.7C1187.08,670.533 1187,670.3 1187,670C1187,669.733 1187.08,669.5 1187.25,669.3C1187.45,669.1 1187.7,669 1188,669C1188.27,669 1188.5,669.1 1188.7,669.3C1188.9,669.5 1189,669.733 1189,670M1188,674C1188.3,674 1188.53,674.083 1188.7,674.25C1188.9,674.483 1189,674.733 1189,675C1189,675.3 1188.9,675.533 1188.7,675.7C1188.53,675.9 1188.3,676 1188,676C1187.73,676 1187.5,675.9 1187.3,675.7C1187.1,675.533 1187,675.3 1187,675C1187,674.733 1187.1,674.483 1187.3,674.25C1187.5,674.083 1187.73,674 1188,674M1182,669C1182.8,669 1183.5,669.3 1184.1,669.9C1184.7,670.467 1185,671.167 1185,672C1185,672.8 1184.7,673.5 1184.1,674.1C1183.5,674.7 1182.8,675 1182,675C1181.17,675 1180.45,674.7 1179.85,674.1C1179.28,673.5 1179,672.8 1179,672C1179,671.167 1179.28,670.467 1179.85,669.9C1180.45,669.3 1181.17,669 1182,669Z" style="fill:rgb(147,147,147);fill-rule:nonzero;"/>
                <path d="M1184.1,669.9C1183.5,669.3 1182.8,669 1182,669C1181.17,669 1180.45,669.3 1179.85,669.9C1179.28,670.467 1179,671.167 1179,672C1179,672.8 1179.28,673.5 1179.85,674.1C1180.45,674.7 1181.17,675 1182,675C1182.8,675 1183.5,674.7 1184.1,674.1C1184.7,673.5 1185,672.8 1185,672C1185,671.167 1184.7,670.467 1184.1,669.9Z" style="fill:rgb(156,156,156);fill-rule:nonzero;"/>
                <path d="M1188.7,674.25C1188.53,674.083 1188.3,674 1188,674C1187.73,674 1187.5,674.083 1187.3,674.25C1187.1,674.483 1187,674.733 1187,675C1187,675.3 1187.1,675.533 1187.3,675.7C1187.5,675.9 1187.73,676 1188,676C1188.3,676 1188.53,675.9 1188.7,675.7C1188.9,675.533 1189,675.3 1189,675C1189,674.733 1188.9,674.483 1188.7,674.25M1188.7,670.7C1188.9,670.533 1189,670.3 1189,670C1189,669.733 1188.9,669.5 1188.7,669.3C1188.5,669.1 1188.27,669 1188,669C1187.7,669 1187.45,669.1 1187.25,669.3C1187.08,669.5 1187,669.733 1187,670C1187,670.3 1187.08,670.533 1187.25,670.7C1187.45,670.9 1187.7,671 1188,671C1188.27,671 1188.5,670.9 1188.7,670.7Z" style="fill:rgb(231,76,60);fill-rule:nonzero;"/>
            </g>
        </g>
    </g>
</svg>
