<?xml version="1.0" encoding="UTF-8" standalone="no"?>
<!DOCTYPE svg PUBLIC "-//W3C//DTD SVG 1.1//EN" "http://www.w3.org/Graphics/SVG/1.1/DTD/svg11.dtd">
<svg width="100%" height="100%" viewBox="0 0 128 128" version="1.1" xmlns="http://www.w3.org/2000/svg" xmlns:xlink="http://www.w3.org/1999/xlink" xml:space="preserve" xmlns:serif="http://www.serif.com/" style="fill-rule:evenodd;clip-rule:evenodd;stroke-linejoin:round;stroke-miterlimit:2;">
    <g transform="matrix(1,0,0,1,-32.4351,-475.155)">
        <g id="Layer0_243_FILL" transform="matrix(2,0,0,2,-2399.56,-292.845)">
            <path d="M1247.25,446.75L1248.35,448L1255.85,448L1256.9,444.8L1247.25,446.75M1216,433.65L1216,437.15L1222.25,439.55L1220.65,429.8L1216,433.65M1219.45,416.25L1216,416.95L1216,425.2L1216.3,425.55L1219.45,416.25M1216,396.35L1216,404.3L1222,403L1216,396.35M1273.75,418.2L1280,425.25L1280,416.95L1273.75,418.2M1280,437.15L1280,433.65L1277.1,436.05L1280,437.15M1280,404.3L1280,396.3L1279.45,395.7L1276.45,405.05L1280,404.3M1248.35,384L1253.75,390.1L1255.85,384L1248.35,384M1231,397.65L1237.5,405L1240.65,395.7L1231,397.65M1241.9,438.15L1232.25,440.1L1238.8,447.45L1241.9,438.15M1254.15,422.55L1253.85,432.4L1262.5,427.8L1254.15,422.55M1245.3,424.35L1251.35,424.65L1248.6,419.2L1245.3,424.35M1247.35,432.4L1243.95,437.5L1250.05,437.85L1247.35,432.4M1230.45,441.55L1224.65,439.6L1225.9,445.6L1230.45,441.55M1227.7,428.5L1229.65,422.7L1223.65,423.95L1227.7,428.5M1232.15,421.85L1232.9,431.65L1241,426.1L1232.15,421.85M1224.75,407.6L1224.4,417.45L1233.05,412.85L1224.75,407.6M1227.3,404.15L1229.9,398.6L1223.75,399.2L1227.3,404.15M1249.5,416.6L1244.25,408.25L1239.65,416.95L1249.5,416.6M1249.55,396.9L1254.45,405.4L1259.35,396.9L1249.55,396.9M1246.35,399.2L1243,404.3L1249.1,404.65L1246.35,399.2M1266.65,427.85L1271.75,431.25L1272.15,425.15L1266.65,427.85M1268.25,435.15L1263.95,444L1273.75,443.3L1268.25,435.15M1259.5,441.05L1259.85,434.95L1254.35,437.7L1259.5,441.05M1263.1,401.05L1268.15,404.35L1268.55,398.25L1263.1,401.05M1256.7,416.6L1257.1,410.5L1251.6,413.25L1256.7,416.6M1266.9,419.95L1270.05,410.65L1260.4,412.6L1266.9,419.95M1273.75,387.1L1275,393.1L1279.55,389.05L1273.75,387.1M1271.15,395.85L1268.7,386.35L1261.7,393.25L1271.15,395.85M1230.15,385.7L1220.35,385.7L1225.25,394.2L1230.15,385.7M1240.45,388.45L1234.65,386.5L1235.9,392.5L1240.45,388.45Z" style="fill:rgb(44,196,108);fill-rule:nonzero;"/>
            <path d="M1248.35,384L1216,384L1216,396.35L1222,403L1216,404.3L1216,416.95L1219.45,416.25L1216.3,425.55L1216,425.2L1216,433.65L1220.65,429.8L1222.25,439.55L1216,437.15L1216,448L1248.35,448L1247.25,446.75L1256.9,444.8L1255.85,448L1280,448L1280,437.15L1277.1,436.05L1280,433.65L1280,425.25L1273.75,418.2L1280,416.95L1280,404.3L1276.45,405.05L1279.45,395.7L1280,396.3L1280,384L1255.85,384L1253.75,390.1L1248.35,384M1234.65,386.5L1240.45,388.45L1235.9,392.5L1234.65,386.5M1220.35,385.7L1230.15,385.7L1225.25,394.2L1220.35,385.7M1268.7,386.35L1271.15,395.85L1261.7,393.25L1268.7,386.35M1275,393.1L1273.75,387.1L1279.55,389.05L1275,393.1M1270.05,410.65L1266.9,419.95L1260.4,412.6L1270.05,410.65M1257.1,410.5L1256.7,416.6L1251.6,413.25L1257.1,410.5M1268.15,404.35L1263.1,401.05L1268.55,398.25L1268.15,404.35M1259.85,434.95L1259.5,441.05L1254.35,437.7L1259.85,434.95M1263.95,444L1268.25,435.15L1273.75,443.3L1263.95,444M1271.75,431.25L1266.65,427.85L1272.15,425.15L1271.75,431.25M1243,404.3L1246.35,399.2L1249.1,404.65L1243,404.3M1254.45,405.4L1249.55,396.9L1259.35,396.9L1254.45,405.4M1244.25,408.25L1249.5,416.6L1239.65,416.95L1244.25,408.25M1229.9,398.6L1227.3,404.15L1223.75,399.2L1229.9,398.6M1224.4,417.45L1224.75,407.6L1233.05,412.85L1224.4,417.45M1232.9,431.65L1232.15,421.85L1241,426.1L1232.9,431.65M1229.65,422.7L1227.7,428.5L1223.65,423.95L1229.65,422.7M1224.65,439.6L1230.45,441.55L1225.9,445.6L1224.65,439.6M1243.95,437.5L1247.35,432.4L1250.05,437.85L1243.95,437.5M1251.35,424.65L1245.3,424.35L1248.6,419.2L1251.35,424.65M1253.85,432.4L1254.15,422.55L1262.5,427.8L1253.85,432.4M1232.25,440.1L1241.9,438.15L1238.8,447.45L1232.25,440.1M1237.5,405L1231,397.65L1240.65,395.7L1237.5,405Z" style="fill:rgb(46,204,113);fill-rule:nonzero;"/>
        </g>
        <g id="Layer0_222_FILL" transform="matrix(2,0,0,2,-2400.56,-164.845)">
            <path d="M1262.7,344.3C1263.9,341.8 1264.77,339.25 1265.3,336.65C1265.37,336.217 1265.3,335.8 1265.1,335.4C1264.9,334.967 1264.6,334.65 1264.2,334.45C1263.8,334.25 1263.38,334.2 1262.95,334.3C1260.42,334.767 1257.98,335.583 1255.65,336.75C1254.48,331.383 1252.48,326.6 1249.65,322.4C1249.42,322 1249.08,321.733 1248.65,321.6C1248.22,321.467 1247.78,321.467 1247.35,321.6C1246.92,321.733 1246.58,322 1246.35,322.4C1243.48,326.633 1241.5,331.467 1240.4,336.9C1237.93,335.667 1235.4,334.8 1232.8,334.3C1232.33,334.2 1231.92,334.25 1231.55,334.45C1231.12,334.65 1230.8,334.95 1230.6,335.35C1230.4,335.75 1230.35,336.183 1230.45,336.65C1230.95,339.283 1231.82,341.85 1233.05,344.35C1227.58,345.45 1222.7,347.45 1218.4,350.35C1218,350.583 1217.73,350.917 1217.6,351.35C1217.47,351.783 1217.47,352.217 1217.6,352.65C1217.73,353.083 1218,353.417 1218.4,353.65C1222.6,356.517 1227.4,358.517 1232.8,359.65C1231.7,361.95 1230.92,364.333 1230.45,366.8C1230.35,367.233 1230.4,367.65 1230.6,368.05C1230.8,368.45 1231.12,368.75 1231.55,368.95C1231.92,369.15 1232.33,369.217 1232.8,369.15C1235.33,368.617 1237.83,367.767 1240.3,366.6C1241.37,372.233 1243.38,377.25 1246.35,381.65C1246.58,382.017 1246.92,382.267 1247.35,382.4C1247.78,382.533 1248.22,382.533 1248.65,382.4C1249.08,382.267 1249.42,382.017 1249.65,381.65C1252.62,377.283 1254.65,372.3 1255.75,366.7C1258.05,367.8 1260.43,368.6 1262.9,369.1C1263.33,369.2 1263.77,369.15 1264.2,368.95C1264.6,368.75 1264.9,368.45 1265.1,368.05C1265.3,367.65 1265.37,367.233 1265.3,366.8C1264.8,364.333 1264.02,361.967 1262.95,359.7C1268.45,358.567 1273.35,356.55 1277.65,353.65C1278.02,353.417 1278.27,353.083 1278.4,352.65C1278.53,352.217 1278.53,351.783 1278.4,351.35C1278.27,350.917 1278.02,350.583 1277.65,350.35C1273.25,347.417 1268.27,345.4 1262.7,344.3M1263.3,336.25C1262.67,339.55 1261.43,342.733 1259.6,345.8C1266,346.667 1271.63,348.733 1276.5,352C1271.73,355.2 1266.2,357.267 1259.9,358.2C1261.57,361.033 1262.7,364.017 1263.3,367.15C1260.13,366.517 1257.1,365.35 1254.2,363.65C1253.33,370.05 1251.27,375.667 1248,380.5C1244.73,375.633 1242.67,369.967 1241.8,363.5C1238.77,365.3 1235.63,366.517 1232.4,367.15C1233,364.017 1234.15,361.017 1235.85,358.15C1229.65,357.217 1224.2,355.167 1219.5,352C1224.3,348.767 1229.85,346.717 1236.15,345.85C1234.28,342.75 1233.03,339.55 1232.4,336.25C1235.67,336.883 1238.82,338.133 1241.85,340C1242.75,333.733 1244.8,328.233 1248,323.5C1251.17,328.2 1253.22,333.633 1254.15,339.8C1257.05,338.033 1260.1,336.85 1263.3,336.25Z" style="fill:rgb(34,156,86);fill-rule:nonzero;"/>
            <path d="M1254.5,361C1254.43,361.9 1254.33,362.783 1254.2,363.65C1257.1,365.35 1260.13,366.517 1263.3,367.15C1262.7,364.017 1261.57,361.033 1259.9,358.2C1258.97,358.333 1258,358.433 1257,358.5C1255.93,358.533 1255,358.433 1254.2,358.2C1254.43,359 1254.53,359.933 1254.5,361M1241.8,358.2C1241,358.433 1240.07,358.533 1239,358.5C1237.93,358.4 1236.88,358.283 1235.85,358.15C1234.15,361.017 1233,364.017 1232.4,367.15C1235.63,366.517 1238.77,365.3 1241.8,363.5C1241.67,362.667 1241.57,361.833 1241.5,361C1241.47,359.933 1241.57,359 1241.8,358.2M1241.5,343C1241.6,341.967 1241.72,340.967 1241.85,340C1238.82,338.133 1235.67,336.883 1232.4,336.25C1233.03,339.55 1234.28,342.75 1236.15,345.85C1237.08,345.683 1238.03,345.567 1239,345.5C1240.07,345.467 1241,345.567 1241.8,345.8C1241.57,345 1241.47,344.067 1241.5,343M1257,345.5C1257.87,345.567 1258.73,345.667 1259.6,345.8C1261.43,342.733 1262.67,339.55 1263.3,336.25C1260.1,336.85 1257.05,338.033 1254.15,339.8C1254.28,340.833 1254.4,341.9 1254.5,343C1254.53,344.067 1254.43,345 1254.2,345.8C1255,345.567 1255.93,345.467 1257,345.5Z" style="fill:rgb(37,166,92);fill-rule:nonzero;"/>
            <path d="M1239,358.5C1240.07,358.533 1241,358.433 1241.8,358.2C1241.57,359 1241.47,359.933 1241.5,361C1241.57,361.833 1241.67,362.667 1241.8,363.5C1242.67,369.967 1244.73,375.633 1248,380.5L1248,355.85C1247.83,353.15 1246.55,351.867 1244.15,352L1219.5,352C1224.2,355.167 1229.65,357.217 1235.85,358.15C1236.88,358.283 1237.93,358.4 1239,358.5M1250.75,354.75C1251.22,356.55 1252.37,357.7 1254.2,358.2C1255,358.433 1255.93,358.533 1257,358.5C1258,358.433 1258.97,358.333 1259.9,358.2C1266.2,357.267 1271.73,355.2 1276.5,352L1251.85,352C1250.58,352.033 1250.2,352.933 1250.7,354.7L1250.7,354.75L1250.75,354.75M1241.85,340C1241.72,340.967 1241.6,341.967 1241.5,343C1241.47,344.067 1241.57,345 1241.8,345.8C1243.13,348.367 1245.2,349.583 1248,349.45L1248,323.5C1244.8,328.233 1242.75,333.733 1241.85,340Z" style="fill:rgb(41,184,102);fill-rule:nonzero;"/>
            <path d="M1259.6,345.8C1258.73,345.667 1257.87,345.567 1257,345.5C1255.93,345.467 1255,345.567 1254.2,345.8C1254.43,345 1254.53,344.067 1254.5,343C1254.4,341.9 1254.28,340.833 1254.15,339.8C1253.22,333.633 1251.17,328.2 1248,323.5L1248,349.45C1245.2,349.583 1243.13,348.367 1241.8,345.8C1241,345.567 1240.07,345.467 1239,345.5C1238.03,345.567 1237.08,345.683 1236.15,345.85C1229.85,346.717 1224.3,348.767 1219.5,352L1244.15,352C1246.55,351.867 1247.83,353.15 1248,355.85L1248,380.5C1251.27,375.667 1253.33,370.05 1254.2,363.65C1254.33,362.783 1254.43,361.9 1254.5,361C1254.53,359.933 1254.43,359 1254.2,358.2C1252.37,357.7 1251.22,356.55 1250.75,354.75L1250.7,354.75L1250.7,354.7C1250.2,352.933 1250.58,352.033 1251.85,352L1276.5,352C1271.63,348.733 1266,346.667 1259.6,345.8Z" style="fill:rgb(46,204,113);fill-rule:nonzero;"/>
        </g>
    </g>
</svg>
