<?xml version="1.0" encoding="UTF-8" standalone="no"?>
<!DOCTYPE svg PUBLIC "-//W3C//DTD SVG 1.1//EN" "http://www.w3.org/Graphics/SVG/1.1/DTD/svg11.dtd">
<svg width="100%" height="100%" viewBox="0 0 64 64" version="1.1" xmlns="http://www.w3.org/2000/svg" xmlns:xlink="http://www.w3.org/1999/xlink" xml:space="preserve" xmlns:serif="http://www.serif.com/" style="fill-rule:evenodd;clip-rule:evenodd;stroke-linejoin:round;stroke-miterlimit:2;">
    <g transform="matrix(1,0,0,1,-311,-248.406)">
        <g id="Layer0_243_FILL" transform="matrix(1,0,0,1,-905,-135.594)">
            <path d="M1247.25,446.75L1248.35,448L1255.85,448L1256.9,444.8L1247.25,446.75M1216,433.65L1216,437.15L1222.25,439.55L1220.65,429.8L1216,433.65M1219.45,416.25L1216,416.95L1216,425.2L1216.3,425.55L1219.45,416.25M1216,396.35L1216,404.3L1222,403L1216,396.35M1273.75,418.2L1280,425.25L1280,416.95L1273.75,418.2M1280,437.15L1280,433.65L1277.1,436.05L1280,437.15M1280,404.3L1280,396.3L1279.45,395.7L1276.45,405.05L1280,404.3M1248.35,384L1253.75,390.1L1255.85,384L1248.35,384M1231,397.65L1237.5,405L1240.65,395.7L1231,397.65M1241.9,438.15L1232.25,440.1L1238.8,447.45L1241.9,438.15M1254.15,422.55L1253.85,432.4L1262.5,427.8L1254.15,422.55M1245.3,424.35L1251.35,424.65L1248.6,419.2L1245.3,424.35M1247.35,432.4L1243.95,437.5L1250.05,437.85L1247.35,432.4M1230.45,441.55L1224.65,439.6L1225.9,445.6L1230.45,441.55M1227.7,428.5L1229.65,422.7L1223.65,423.95L1227.7,428.5M1232.15,421.85L1232.9,431.65L1241,426.1L1232.15,421.85M1224.75,407.6L1224.4,417.45L1233.05,412.85L1224.75,407.6M1227.3,404.15L1229.9,398.6L1223.75,399.2L1227.3,404.15M1249.5,416.6L1244.25,408.25L1239.65,416.95L1249.5,416.6M1249.55,396.9L1254.45,405.4L1259.35,396.9L1249.55,396.9M1246.35,399.2L1243,404.3L1249.1,404.65L1246.35,399.2M1266.65,427.85L1271.75,431.25L1272.15,425.15L1266.65,427.85M1268.25,435.15L1263.95,444L1273.75,443.3L1268.25,435.15M1259.5,441.05L1259.85,434.95L1254.35,437.7L1259.5,441.05M1263.1,401.05L1268.15,404.35L1268.55,398.25L1263.1,401.05M1256.7,416.6L1257.1,410.5L1251.6,413.25L1256.7,416.6M1266.9,419.95L1270.05,410.65L1260.4,412.6L1266.9,419.95M1273.75,387.1L1275,393.1L1279.55,389.05L1273.75,387.1M1271.15,395.85L1268.7,386.35L1261.7,393.25L1271.15,395.85M1230.15,385.7L1220.35,385.7L1225.25,394.2L1230.15,385.7M1240.45,388.45L1234.65,386.5L1235.9,392.5L1240.45,388.45Z" style="fill:rgb(44,196,108);fill-rule:nonzero;"/>
            <path d="M1248.35,384L1216,384L1216,396.35L1222,403L1216,404.3L1216,416.95L1219.45,416.25L1216.3,425.55L1216,425.2L1216,433.65L1220.65,429.8L1222.25,439.55L1216,437.15L1216,448L1248.35,448L1247.25,446.75L1256.9,444.8L1255.85,448L1280,448L1280,437.15L1277.1,436.05L1280,433.65L1280,425.25L1273.75,418.2L1280,416.95L1280,404.3L1276.45,405.05L1279.45,395.7L1280,396.3L1280,384L1255.85,384L1253.75,390.1L1248.35,384M1234.65,386.5L1240.45,388.45L1235.9,392.5L1234.65,386.5M1220.35,385.7L1230.15,385.7L1225.25,394.2L1220.35,385.7M1268.7,386.35L1271.15,395.85L1261.7,393.25L1268.7,386.35M1275,393.1L1273.75,387.1L1279.55,389.05L1275,393.1M1270.05,410.65L1266.9,419.95L1260.4,412.6L1270.05,410.65M1257.1,410.5L1256.7,416.6L1251.6,413.25L1257.1,410.5M1268.15,404.35L1263.1,401.05L1268.55,398.25L1268.15,404.35M1259.85,434.95L1259.5,441.05L1254.35,437.7L1259.85,434.95M1263.95,444L1268.25,435.15L1273.75,443.3L1263.95,444M1271.75,431.25L1266.65,427.85L1272.15,425.15L1271.75,431.25M1243,404.3L1246.35,399.2L1249.1,404.65L1243,404.3M1254.45,405.4L1249.55,396.9L1259.35,396.9L1254.45,405.4M1244.25,408.25L1249.5,416.6L1239.65,416.95L1244.25,408.25M1229.9,398.6L1227.3,404.15L1223.75,399.2L1229.9,398.6M1224.4,417.45L1224.75,407.6L1233.05,412.85L1224.4,417.45M1232.9,431.65L1232.15,421.85L1241,426.1L1232.9,431.65M1229.65,422.7L1227.7,428.5L1223.65,423.95L1229.65,422.7M1224.65,439.6L1230.45,441.55L1225.9,445.6L1224.65,439.6M1243.95,437.5L1247.35,432.4L1250.05,437.85L1243.95,437.5M1251.35,424.65L1245.3,424.35L1248.6,419.2L1251.35,424.65M1253.85,432.4L1254.15,422.55L1262.5,427.8L1253.85,432.4M1232.25,440.1L1241.9,438.15L1238.8,447.45L1232.25,440.1M1237.5,405L1231,397.65L1240.65,395.7L1237.5,405Z" style="fill:rgb(46,204,113);fill-rule:nonzero;"/>
        </g>
    </g>
</svg>
