<?xml version="1.0" encoding="UTF-8" standalone="no"?>
<!DOCTYPE svg PUBLIC "-//W3C//DTD SVG 1.1//EN" "http://www.w3.org/Graphics/SVG/1.1/DTD/svg11.dtd">
<svg width="100%" height="100%" viewBox="0 0 64 64" version="1.1" xmlns="http://www.w3.org/2000/svg" xmlns:xlink="http://www.w3.org/1999/xlink" xml:space="preserve" xmlns:serif="http://www.serif.com/" style="fill-rule:evenodd;clip-rule:evenodd;stroke-linejoin:round;stroke-miterlimit:2;">
    <g transform="matrix(1,0,0,1,-538.898,-226.801)">
        <g id="Layer0_44_FILL" transform="matrix(1,0,0,1,474.898,-29.1986)">
            <path d="M103.25,315.1L102.7,320L112.4,320L112.8,316.2L103.25,315.1M66.7,295.55L66.05,290.15L64,290.4L64,295.9L66.7,295.55M64.05,265.25L64,265.25L64,273.3L65.85,272.85L64.05,265.25M125.3,296.2L128,295.9L128,290.4L124.65,290.8L125.3,296.2M128,273.3L128,265.25L120.5,267.05L122.25,274.6L128,273.3M101.05,302.1L96.15,304.35L98.35,309.3L103.3,307.1L101.05,302.1M93.4,304L83.65,301.8L81.5,311.6L89.2,313.3C89.3,313.333 89.433,313.367 89.6,313.4C90.133,313.5 90.667,313.617 91.2,313.75L93.4,304M116.5,305.3L114.15,297.9L106.75,300.25L109.1,307.65L116.5,305.3M124.1,311.5L124.7,306.05L119.25,305.5L118.7,310.95L124.1,311.5M77.2,301.35L72.6,302.95L74.15,307.55L78.75,306L77.2,301.35M72,317.45L71.15,312.1L65.8,312.95L66.65,318.3L72,317.45M74.95,291.2L71.75,295.55L76.15,298.75L79.3,294.35L74.95,291.2M69.25,264.85L74.2,262.6L72,257.7L67,259.9L69.25,264.85M117.2,286.2L115.25,291.3L120.4,293.3L122.3,288.15L117.2,286.2M104.45,289.1L107.9,293.3L112.15,289.85L108.65,285.65L104.45,289.1M118.15,279.8L114.2,276.05L110.45,280L114.4,283.75L118.15,279.8M82.15,287.7L84.7,277.8L74.85,275.25L72.3,285.1L82.15,287.7M99.3,292.1L96.95,284.65L89.5,287L91.9,294.45L99.3,292.1M100.05,280.6L100.6,275.2L95.2,274.65L94.65,280.05L100.05,280.6M90.2,265.25L83.3,258.9L76.95,265.8L83.85,272.15L90.2,265.25M106,264.45L102.8,268.9L107.25,272.05L110.4,267.65L106,264.45M112.35,256L102.7,256L102.15,260.65L111.7,261.75L112.35,256Z" style="fill:rgb(196,134,71);fill-rule:nonzero;"/>
            <path d="M112.35,256L111.7,261.75L102.15,260.65L102.7,256L64,256L64,265.25L64.05,265.25L65.85,272.85L64,273.3L64,290.4L66.05,290.15L66.7,295.55L64,295.9L64,320L102.7,320L103.25,315.1L112.8,316.2L112.4,320L128,320L128,295.9L125.3,296.2L124.65,290.8L128,290.4L128,273.3L122.25,274.6L120.5,267.05L128,265.25L128,256L112.35,256M102.8,268.9L106,264.45L110.4,267.65L107.25,272.05L102.8,268.9M83.3,258.9L90.2,265.25L83.85,272.15L76.95,265.8L83.3,258.9M100.6,275.2L100.05,280.6L94.65,280.05L95.2,274.65L100.6,275.2M96.95,284.65L99.3,292.1L91.9,294.45L89.5,287L96.95,284.65M84.7,277.8L82.15,287.7L72.3,285.1L74.85,275.25L84.7,277.8M114.2,276.05L118.15,279.8L114.4,283.75L110.45,280L114.2,276.05M107.9,293.3L104.45,289.1L108.65,285.65L112.15,289.85L107.9,293.3M115.25,291.3L117.2,286.2L122.3,288.15L120.4,293.3L115.25,291.3M74.2,262.6L69.25,264.85L67,259.9L72,257.7L74.2,262.6M71.75,295.55L74.95,291.2L79.3,294.35L76.15,298.75L71.75,295.55M71.15,312.1L72,317.45L66.65,318.3L65.8,312.95L71.15,312.1M72.6,302.95L77.2,301.35L78.75,306L74.15,307.55L72.6,302.95M124.7,306.05L124.1,311.5L118.7,310.95L119.25,305.5L124.7,306.05M114.15,297.9L116.5,305.3L109.1,307.65L106.75,300.25L114.15,297.9M83.65,301.8L93.4,304L91.2,313.75C90.667,313.617 90.133,313.5 89.6,313.4C89.433,313.367 89.3,313.333 89.2,313.3L81.5,311.6L83.65,301.8M96.15,304.35L101.05,302.1L103.3,307.1L98.35,309.3L96.15,304.35Z" style="fill:rgb(187,128,68);fill-rule:nonzero;"/>
        </g>
    </g>
</svg>
