<?xml version="1.0" encoding="UTF-8" standalone="no"?>
<!DOCTYPE svg PUBLIC "-//W3C//DTD SVG 1.1//EN" "http://www.w3.org/Graphics/SVG/1.1/DTD/svg11.dtd">
<svg width="100%" height="100%" viewBox="0 0 64 64" version="1.1" xmlns="http://www.w3.org/2000/svg" xmlns:xlink="http://www.w3.org/1999/xlink" xml:space="preserve" xmlns:serif="http://www.serif.com/" style="fill-rule:evenodd;clip-rule:evenodd;stroke-linejoin:round;stroke-miterlimit:2;">
    <g transform="matrix(1,0,0,1,-43.9493,-315.499)">
        <g id="Layer0_243_FILL" transform="matrix(1,0,0,1,-1172.05,-68.5008)">
            <path d="M1247.25,446.75L1248.35,448L1255.85,448L1256.9,444.8L1247.25,446.75M1216,433.65L1216,437.15L1222.25,439.55L1220.65,429.8L1216,433.65M1219.45,416.25L1216,416.95L1216,425.2L1216.3,425.55L1219.45,416.25M1216,396.35L1216,404.3L1222,403L1216,396.35M1273.75,418.2L1280,425.25L1280,416.95L1273.75,418.2M1280,437.15L1280,433.65L1277.1,436.05L1280,437.15M1280,404.3L1280,396.3L1279.45,395.7L1276.45,405.05L1280,404.3M1248.35,384L1253.75,390.1L1255.85,384L1248.35,384M1231,397.65L1237.5,405L1240.65,395.7L1231,397.65M1241.9,438.15L1232.25,440.1L1238.8,447.45L1241.9,438.15M1254.15,422.55L1253.85,432.4L1262.5,427.8L1254.15,422.55M1245.3,424.35L1251.35,424.65L1248.6,419.2L1245.3,424.35M1247.35,432.4L1243.95,437.5L1250.05,437.85L1247.35,432.4M1230.45,441.55L1224.65,439.6L1225.9,445.6L1230.45,441.55M1227.7,428.5L1229.65,422.7L1223.65,423.95L1227.7,428.5M1232.15,421.85L1232.9,431.65L1241,426.1L1232.15,421.85M1224.75,407.6L1224.4,417.45L1233.05,412.85L1224.75,407.6M1227.3,404.15L1229.9,398.6L1223.75,399.2L1227.3,404.15M1249.5,416.6L1244.25,408.25L1239.65,416.95L1249.5,416.6M1249.55,396.9L1254.45,405.4L1259.35,396.9L1249.55,396.9M1246.35,399.2L1243,404.3L1249.1,404.65L1246.35,399.2M1266.65,427.85L1271.75,431.25L1272.15,425.15L1266.65,427.85M1268.25,435.15L1263.95,444L1273.75,443.3L1268.25,435.15M1259.5,441.05L1259.85,434.95L1254.35,437.7L1259.5,441.05M1263.1,401.05L1268.15,404.35L1268.55,398.25L1263.1,401.05M1256.7,416.6L1257.1,410.5L1251.6,413.25L1256.7,416.6M1266.9,419.95L1270.05,410.65L1260.4,412.6L1266.9,419.95M1273.75,387.1L1275,393.1L1279.55,389.05L1273.75,387.1M1271.15,395.85L1268.7,386.35L1261.7,393.25L1271.15,395.85M1230.15,385.7L1220.35,385.7L1225.25,394.2L1230.15,385.7M1240.45,388.45L1234.65,386.5L1235.9,392.5L1240.45,388.45Z" style="fill:rgb(44,196,108);fill-rule:nonzero;"/>
            <path d="M1248.35,384L1216,384L1216,396.35L1222,403L1216,404.3L1216,416.95L1219.45,416.25L1216.3,425.55L1216,425.2L1216,433.65L1220.65,429.8L1222.25,439.55L1216,437.15L1216,448L1248.35,448L1247.25,446.75L1256.9,444.8L1255.85,448L1280,448L1280,437.15L1277.1,436.05L1280,433.65L1280,425.25L1273.75,418.2L1280,416.95L1280,404.3L1276.45,405.05L1279.45,395.7L1280,396.3L1280,384L1255.85,384L1253.75,390.1L1248.35,384M1234.65,386.5L1240.45,388.45L1235.9,392.5L1234.65,386.5M1220.35,385.7L1230.15,385.7L1225.25,394.2L1220.35,385.7M1268.7,386.35L1271.15,395.85L1261.7,393.25L1268.7,386.35M1275,393.1L1273.75,387.1L1279.55,389.05L1275,393.1M1270.05,410.65L1266.9,419.95L1260.4,412.6L1270.05,410.65M1257.1,410.5L1256.7,416.6L1251.6,413.25L1257.1,410.5M1268.15,404.35L1263.1,401.05L1268.55,398.25L1268.15,404.35M1259.85,434.95L1259.5,441.05L1254.35,437.7L1259.85,434.95M1263.95,444L1268.25,435.15L1273.75,443.3L1263.95,444M1271.75,431.25L1266.65,427.85L1272.15,425.15L1271.75,431.25M1243,404.3L1246.35,399.2L1249.1,404.65L1243,404.3M1254.45,405.4L1249.55,396.9L1259.35,396.9L1254.45,405.4M1244.25,408.25L1249.5,416.6L1239.65,416.95L1244.25,408.25M1229.9,398.6L1227.3,404.15L1223.75,399.2L1229.9,398.6M1224.4,417.45L1224.75,407.6L1233.05,412.85L1224.4,417.45M1232.9,431.65L1232.15,421.85L1241,426.1L1232.9,431.65M1229.65,422.7L1227.7,428.5L1223.65,423.95L1229.65,422.7M1224.65,439.6L1230.45,441.55L1225.9,445.6L1224.65,439.6M1243.95,437.5L1247.35,432.4L1250.05,437.85L1243.95,437.5M1251.35,424.65L1245.3,424.35L1248.6,419.2L1251.35,424.65M1253.85,432.4L1254.15,422.55L1262.5,427.8L1253.85,432.4M1232.25,440.1L1241.9,438.15L1238.8,447.45L1232.25,440.1M1237.5,405L1231,397.65L1240.65,395.7L1237.5,405Z" style="fill:rgb(46,204,113);fill-rule:nonzero;"/>
        </g>
        <g id="Layer0_219_FILL" transform="matrix(0.96875,0,0,0.96875,-885.051,6.49876)">
            <path d="M1021.05,342.4C1021.18,341.467 1021.25,340.483 1021.25,339.45C1021.22,334.783 1019.57,330.817 1016.3,327.55C1013.03,324.25 1009.08,322.583 1004.45,322.55L1004.4,322.55C1003.17,322.55 1002,322.683 1000.9,322.95C998.267,321.017 995.267,320.033 991.9,320L991.85,320C988.45,320 985.433,320.967 982.8,322.9C981.667,322.633 980.45,322.5 979.15,322.5C974.55,322.5 970.6,324.133 967.3,327.4C964.067,330.633 962.45,334.567 962.45,339.2C962.45,340.3 962.567,341.35 962.8,342.35L962.8,342.3C962.833,342.5 962.883,342.7 962.95,342.9C962.783,343.1 962.617,343.3 962.45,343.5L962.45,343.55C961.15,345.483 960.383,347.6 960.15,349.9C960.05,350.533 960,351.2 960,351.9C960,352.9 960.1,353.883 960.3,354.85L960.3,354.8C960.433,355.667 960.667,356.5 961,357.3C961.433,358.533 962.083,359.717 962.95,360.85C962.783,361.617 962.667,362.417 962.6,363.25C962.567,363.65 962.55,364.05 962.55,364.45L962.55,364.5C962.583,369.133 964.233,373.1 967.5,376.4C970.833,379.667 974.783,381.3 979.35,381.3C980.617,381.3 981.817,381.183 982.95,380.95C985.617,382.95 988.667,383.967 992.1,384C995.567,384.033 998.6,383.067 1001.2,381.1C1002.3,381.3 1003.43,381.417 1004.6,381.45L1004.65,381.45C1009.28,381.45 1013.23,379.817 1016.5,376.55L1016.45,376.55C1019.72,373.317 1021.35,369.367 1021.35,364.7L1021.35,363.65C1021.28,362.85 1021.17,362.083 1021,361.35C1021.8,360.25 1022.43,359.1 1022.9,357.9L1022.9,357.85C1023.3,356.95 1023.58,356.017 1023.75,355.05L1023.7,355.1C1023.9,354.133 1024,353.133 1024,352.1C1024,351.433 1023.97,350.8 1023.9,350.2C1023.57,347.667 1022.68,345.367 1021.25,343.3C1021.22,343.267 1021.18,343.233 1021.15,343.2C1021.08,343.1 1021.02,343.017 1020.95,342.95C1020.98,342.75 1021.02,342.567 1021.05,342.4M1019.25,339.45C1019.25,340.383 1019.18,341.267 1019.05,342.1C1018.98,342.533 1018.88,342.967 1018.75,343.4C1019.02,343.733 1019.3,344.083 1019.6,344.45C1020.9,346.25 1021.68,348.25 1021.95,350.45C1022.02,350.983 1022.05,351.533 1022.05,352.1C1022.05,353 1021.97,353.867 1021.8,354.7C1021.67,355.533 1021.43,356.333 1021.1,357.1C1020.57,358.433 1019.8,359.683 1018.8,360.85C1019.07,361.817 1019.25,362.817 1019.35,363.85L1019.35,364.7C1019.35,368.8 1017.92,372.267 1015.05,375.1C1012.18,378 1008.72,379.45 1004.65,379.45C1003.28,379.417 1001.97,379.233 1000.7,378.9C998.3,381 995.433,382.033 992.1,382C988.8,381.967 985.9,380.9 983.4,378.8C982.167,379.133 980.817,379.3 979.35,379.3C975.317,379.3 971.833,377.85 968.9,374.95C966.033,372.05 964.583,368.55 964.55,364.45C964.55,364.117 964.567,363.783 964.6,363.45C964.667,362.383 964.833,361.367 965.1,360.4C964.1,359.2 963.35,357.933 962.85,356.6C962.583,355.9 962.383,355.183 962.25,354.45C962.083,353.617 962,352.767 962,351.9C962,351.267 962.05,350.667 962.15,350.1C962.35,348.133 963,346.317 964.1,344.65C964.4,344.217 964.717,343.8 965.05,343.4C964.95,342.9 964.85,342.4 964.75,341.9C964.55,341.033 964.45,340.133 964.45,339.2C964.45,335.133 965.867,331.667 968.7,328.8C971.6,325.933 975.083,324.5 979.15,324.5C980.617,324.5 981.983,324.683 983.25,325.05C985.717,323.017 988.583,322 991.85,322C995.117,322.033 997.983,323.067 1000.45,325.1C1001.68,324.733 1003,324.55 1004.4,324.55C1008.5,324.583 1011.98,326.05 1014.85,328.95C1017.75,331.85 1019.22,335.35 1019.25,339.45Z" style="fill:rgb(34,156,86);fill-rule:nonzero;"/>
            <path d="M992.1,374.85C988.567,374.817 985.483,373.667 982.85,371.4C981.517,371.767 980.083,371.95 978.55,371.95C974.25,371.95 970.55,370.4 967.45,367.3C966.283,366.1 965.333,364.817 964.6,363.45C964.567,363.783 964.55,364.117 964.55,364.45C964.583,368.55 966.033,372.05 968.9,374.95C971.833,377.85 975.317,379.3 979.35,379.3C980.817,379.3 982.167,379.133 983.4,378.8C985.9,380.9 988.8,381.967 992.1,382C995.433,382.033 998.3,381 1000.7,378.9C1001.97,379.233 1003.28,379.417 1004.65,379.45C1008.72,379.45 1012.18,378 1015.05,375.1C1017.92,372.267 1019.35,368.8 1019.35,364.7L1019.35,363.85C1018.62,365.15 1017.68,366.35 1016.55,367.45C1013.52,370.517 1009.82,372.05 1005.45,372.05C1003.98,372.017 1002.58,371.833 1001.25,371.5C998.683,373.767 995.633,374.883 992.1,374.85Z" style="fill:rgb(41,184,102);fill-rule:nonzero;"/>
            <path d="M1019.05,342.1C1019.18,341.267 1019.25,340.383 1019.25,339.45C1019.22,335.35 1017.75,331.85 1014.85,328.95C1011.98,326.05 1008.5,324.583 1004.4,324.55C1003,324.55 1001.68,324.733 1000.45,325.1C997.983,323.067 995.117,322.033 991.85,322C988.583,322 985.717,323.017 983.25,325.05C981.983,324.683 980.617,324.5 979.15,324.5C975.083,324.5 971.6,325.933 968.7,328.8C965.867,331.667 964.45,335.133 964.45,339.2C964.45,340.133 964.55,341.033 964.75,341.9C964.85,342.4 964.95,342.9 965.05,343.4C964.717,343.8 964.4,344.217 964.1,344.65C963,346.317 962.35,348.133 962.15,350.1C962.05,350.667 962,351.267 962,351.9C962,352.767 962.083,353.617 962.25,354.45C962.383,355.183 962.583,355.9 962.85,356.6C963.35,357.933 964.1,359.2 965.1,360.4C964.833,361.367 964.667,362.383 964.6,363.45C965.333,364.817 966.283,366.1 967.45,367.3C970.55,370.4 974.25,371.95 978.55,371.95C980.083,371.95 981.517,371.767 982.85,371.4C985.483,373.667 988.567,374.817 992.1,374.85C995.633,374.883 998.683,373.767 1001.25,371.5C1002.58,371.833 1003.98,372.017 1005.45,372.05C1009.82,372.05 1013.52,370.517 1016.55,367.45C1017.68,366.35 1018.62,365.15 1019.35,363.85C1019.25,362.817 1019.07,361.817 1018.8,360.85C1019.8,359.683 1020.57,358.433 1021.1,357.1C1021.43,356.333 1021.67,355.533 1021.8,354.7C1021.97,353.867 1022.05,353 1022.05,352.1C1022.05,351.533 1022.02,350.983 1021.95,350.45C1021.68,348.25 1020.9,346.25 1019.6,344.45C1019.3,344.083 1019.02,343.733 1018.75,343.4C1018.88,342.967 1018.98,342.533 1019.05,342.1M984.45,330.85C985.117,331.583 985.617,332.533 985.95,333.7L985.95,333.75C985.983,333.783 986,333.817 986,333.85C986.1,334.383 986.017,334.933 985.75,335.5C985.417,336.033 984.933,336.367 984.3,336.5C983.633,336.733 983.05,336.683 982.55,336.35C982.017,336.017 981.667,335.6 981.5,335.1C981.467,335.067 981.433,335.033 981.4,335C981.433,335 981.433,334.983 981.4,334.95C981.1,333.75 981.067,332.667 981.3,331.7C981.5,330.767 981.917,330.2 982.55,330C983.183,329.867 983.817,330.15 984.45,330.85M977.65,334.45C977.683,334.483 977.717,334.483 977.75,334.45C978.483,334.683 979.017,335.15 979.35,335.85C979.817,336.617 979.95,337.417 979.75,338.25C979.483,339.083 979,339.7 978.3,340.1C977.6,340.5 976.867,340.633 976.1,340.5L975.9,340.5C974.367,340.067 973.133,339.4 972.2,338.5C971.233,337.6 970.867,336.75 971.1,335.95C971.333,335.117 972.083,334.533 973.35,334.2C974.583,333.9 975.967,333.967 977.5,334.4C977.567,334.433 977.617,334.45 977.65,334.45M978.7,341.9C979.267,341.6 979.883,341.55 980.55,341.75C981.25,341.917 981.783,342.333 982.15,343C982.517,343.667 982.6,344.35 982.4,345.05C982.267,345.717 981.917,346.217 981.35,346.55C981.35,346.583 981.333,346.617 981.3,346.65C981.3,346.617 981.267,346.633 981.2,346.7C979.967,347.4 978.8,347.767 977.7,347.8C976.567,347.833 975.817,347.517 975.45,346.85C975.083,346.25 975.217,345.467 975.85,344.5C976.417,343.5 977.3,342.667 978.5,342L978.55,341.95C978.583,341.917 978.633,341.9 978.7,341.9M1008.6,356.05L1008.65,356.1C1008.65,356.133 1008.67,356.167 1008.7,356.2C1009.73,357.2 1010.4,358.233 1010.7,359.3C1011.07,360.367 1010.95,361.167 1010.35,361.7C1009.88,362.2 1009.12,362.283 1008.05,361.95C1006.95,361.65 1005.92,361 1004.95,360L1004.85,359.95C1004.82,359.95 1004.8,359.933 1004.8,359.9C1004.37,359.4 1004.17,358.8 1004.2,358.1C1004.2,357.367 1004.47,356.75 1005,356.25C1005.53,355.717 1006.15,355.45 1006.85,355.45C1007.55,355.45 1008.13,355.65 1008.6,356.05M998.8,360.8C999.4,360.167 1000.15,359.833 1001.05,359.8C1001.88,359.833 1002.6,360.15 1003.2,360.75C1003.77,361.283 1004.07,361.95 1004.1,362.75C1004.13,362.783 1004.15,362.833 1004.15,362.9L1004.15,362.95C1004.18,364.55 1003.88,365.917 1003.25,367.05C1002.62,368.25 1001.88,368.833 1001.05,368.8C1000.18,368.767 999.417,368.183 998.75,367.05C998.183,365.917 997.9,364.55 997.9,362.95C997.933,362.883 997.95,362.833 997.95,362.8C997.95,362.767 997.933,362.733 997.9,362.7C997.967,361.933 998.267,361.3 998.8,360.8Z" style="fill:rgb(46,204,113);fill-rule:nonzero;"/>
            <path d="M1001.05,359.8C1000.15,359.833 999.4,360.167 998.8,360.8C998.267,361.3 997.967,361.933 997.9,362.7C997.933,362.733 997.95,362.767 997.95,362.8C997.95,362.833 997.933,362.883 997.9,362.95C997.9,364.55 998.183,365.917 998.75,367.05C999.417,368.183 1000.18,368.767 1001.05,368.8C1001.88,368.833 1002.62,368.25 1003.25,367.05C1003.88,365.917 1004.18,364.55 1004.15,362.95L1004.15,362.9C1004.15,362.833 1004.13,362.783 1004.1,362.75C1004.07,361.95 1003.77,361.283 1003.2,360.75C1002.6,360.15 1001.88,359.833 1001.05,359.8M1008.65,356.1L1008.6,356.05C1008.13,355.65 1007.55,355.45 1006.85,355.45C1006.15,355.45 1005.53,355.717 1005,356.25C1004.47,356.75 1004.2,357.367 1004.2,358.1C1004.17,358.8 1004.37,359.4 1004.8,359.9C1004.8,359.933 1004.82,359.95 1004.85,359.95L1004.95,360C1005.92,361 1006.95,361.65 1008.05,361.95C1009.12,362.283 1009.88,362.2 1010.35,361.7C1010.95,361.167 1011.07,360.367 1010.7,359.3C1010.4,358.233 1009.73,357.2 1008.7,356.2C1008.67,356.167 1008.65,356.133 1008.65,356.1M980.55,341.75C979.883,341.55 979.267,341.6 978.7,341.9C978.633,341.9 978.583,341.917 978.55,341.95L978.5,342C977.3,342.667 976.417,343.5 975.85,344.5C975.217,345.467 975.083,346.25 975.45,346.85C975.817,347.517 976.567,347.833 977.7,347.8C978.8,347.767 979.967,347.4 981.2,346.7C981.267,346.633 981.3,346.617 981.3,346.65C981.333,346.617 981.35,346.583 981.35,346.55C981.917,346.217 982.267,345.717 982.4,345.05C982.6,344.35 982.517,343.667 982.15,343C981.783,342.333 981.25,341.917 980.55,341.75M977.75,334.45C977.717,334.483 977.683,334.483 977.65,334.45C977.617,334.45 977.567,334.433 977.5,334.4C975.967,333.967 974.583,333.9 973.35,334.2C972.083,334.533 971.333,335.117 971.1,335.95C970.867,336.75 971.233,337.6 972.2,338.5C973.133,339.4 974.367,340.067 975.9,340.5L976.1,340.5C976.867,340.633 977.6,340.5 978.3,340.1C979,339.7 979.483,339.083 979.75,338.25C979.95,337.417 979.817,336.617 979.35,335.85C979.017,335.15 978.483,334.683 977.75,334.45M985.95,333.7C985.617,332.533 985.117,331.583 984.45,330.85C983.817,330.15 983.183,329.867 982.55,330C981.917,330.2 981.5,330.767 981.3,331.7C981.067,332.667 981.1,333.75 981.4,334.95C981.433,334.983 981.433,335 981.4,335C981.433,335.033 981.467,335.067 981.5,335.1C981.667,335.6 982.017,336.017 982.55,336.35C983.05,336.683 983.633,336.733 984.3,336.5C984.933,336.367 985.417,336.033 985.75,335.5C986.017,334.933 986.1,334.383 986,333.85C986,333.817 985.983,333.783 985.95,333.75L985.95,333.7Z" style="fill:rgb(49,217,120);fill-rule:nonzero;"/>
        </g>
    </g>
</svg>
