<?xml version="1.0" encoding="UTF-8" standalone="no"?>
<!DOCTYPE svg PUBLIC "-//W3C//DTD SVG 1.1//EN" "http://www.w3.org/Graphics/SVG/1.1/DTD/svg11.dtd">
<svg width="100%" height="100%" viewBox="0 0 68 68" version="1.1" xmlns="http://www.w3.org/2000/svg" xmlns:xlink="http://www.w3.org/1999/xlink" xml:space="preserve" xmlns:serif="http://www.serif.com/" style="fill-rule:evenodd;clip-rule:evenodd;stroke-linejoin:round;stroke-miterlimit:2;">
    <g transform="matrix(1,0,0,1,-605.961,-118.298)">
        <g transform="matrix(0.861062,0,0,0.861062,184.467,81.7587)">
            <circle cx="528.527" cy="81.457" r="37.163" style="fill:white;"/>
            <path d="M528.527,42.436C550.063,42.436 567.548,59.921 567.548,81.457C567.548,102.994 550.063,120.479 528.527,120.479C506.99,120.479 489.505,102.994 489.505,81.457C489.505,59.921 506.99,42.436 528.527,42.436ZM528.527,44.294C508.016,44.294 491.363,60.946 491.363,81.457C491.363,101.968 508.016,118.621 528.527,118.621C549.038,118.621 565.69,101.968 565.69,81.457C565.69,60.946 549.038,44.294 528.527,44.294Z" style="fill:rgb(5,135,24);"/>
        </g>
        <g transform="matrix(0.84767,0,0,0.84767,164.383,-26.001)">
            <rect x="549.554" y="193.898" width="17.536" height="2.894" style="fill:rgb(182,171,171);"/>
        </g>
        <g transform="matrix(0.84767,0,0,0.84767,156.95,-19.9776)">
            <rect x="549.554" y="193.898" width="17.536" height="2.894" style="fill:rgb(182,171,171);"/>
        </g>
        <g transform="matrix(0.84767,0,0,0.84767,149.518,-8.00266)">
            <rect x="549.554" y="193.898" width="17.536" height="2.894" style="fill:rgb(182,171,171);"/>
        </g>
        <g transform="matrix(0.84767,0,0,0.84767,156.95,-1.37949)">
            <rect x="549.554" y="193.898" width="17.536" height="2.894" style="fill:rgb(182,171,171);"/>
        </g>
        <g id="Layer0_264_FILL" transform="matrix(1.10324,0,0,1.10324,-719.938,-667.899)">
            <path d="M1240,736C1240,738.233 1240.78,740.133 1242.35,741.7C1243.88,743.233 1245.77,744 1248,744C1250.23,744 1252.13,743.233 1253.7,741.7C1255.23,740.133 1256,738.233 1256,736C1256,733.767 1255.23,731.883 1253.7,730.35C1252.13,728.783 1250.23,728 1248,728C1245.77,728 1243.88,728.783 1242.35,730.35C1240.78,731.883 1240,733.767 1240,736M1243.75,740.25C1242.58,739.083 1242,737.667 1242,736C1242,734.333 1242.58,732.917 1243.75,731.75C1244.92,730.583 1246.33,730 1248,730C1249.67,730 1251.08,730.583 1252.25,731.75C1253.42,732.917 1254,734.333 1254,736C1254,737.667 1253.42,739.083 1252.25,740.25C1251.08,741.417 1249.67,742 1248,742C1246.33,742 1244.92,741.417 1243.75,740.25Z" style="fill:rgb(194,154,0);fill-rule:nonzero;"/>
            <path d="M1242,736C1242,737.667 1242.58,739.083 1243.75,740.25C1244.92,741.417 1246.33,742 1248,742C1249.67,742 1251.08,741.417 1252.25,740.25C1253.42,739.083 1254,737.667 1254,736C1254,734.333 1253.42,732.917 1252.25,731.75C1251.08,730.583 1249.67,730 1248,730C1246.33,730 1244.92,730.583 1243.75,731.75C1242.58,732.917 1242,734.333 1242,736M1245.2,738.85C1244.4,738.05 1244,737.1 1244,736C1244,734.9 1244.4,733.967 1245.2,733.2C1245.97,732.4 1246.9,732 1248,732C1249.1,732 1250.05,732.4 1250.85,733.2C1251.62,733.967 1252,734.9 1252,736C1252,737.1 1251.62,738.05 1250.85,738.85C1250.05,739.617 1249.1,740 1248,740C1246.9,740 1245.97,739.617 1245.2,738.85Z" style="fill:rgb(255,215,58);fill-rule:nonzero;"/>
            <path d="M1244,736C1244,737.1 1244.4,738.05 1245.2,738.85C1245.97,739.617 1246.9,740 1248,740C1249.1,740 1250.05,739.617 1250.85,738.85C1251.62,738.05 1252,737.1 1252,736C1252,734.9 1251.62,733.967 1250.85,733.2C1250.05,732.4 1249.1,732 1248,732C1246.9,732 1245.97,732.4 1245.2,733.2C1244.4,733.967 1244,734.9 1244,736Z" style="fill:rgb(255,204,0);fill-rule:nonzero;"/>
        </g>
        <g id="Layer0_264_FILL1" serif:id="Layer0_264_FILL" transform="matrix(1.10324,0,0,1.10324,-728.764,-650.247)">
            <path d="M1240,736C1240,738.233 1240.78,740.133 1242.35,741.7C1243.88,743.233 1245.77,744 1248,744C1250.23,744 1252.13,743.233 1253.7,741.7C1255.23,740.133 1256,738.233 1256,736C1256,733.767 1255.23,731.883 1253.7,730.35C1252.13,728.783 1250.23,728 1248,728C1245.77,728 1243.88,728.783 1242.35,730.35C1240.78,731.883 1240,733.767 1240,736M1243.75,740.25C1242.58,739.083 1242,737.667 1242,736C1242,734.333 1242.58,732.917 1243.75,731.75C1244.92,730.583 1246.33,730 1248,730C1249.67,730 1251.08,730.583 1252.25,731.75C1253.42,732.917 1254,734.333 1254,736C1254,737.667 1253.42,739.083 1252.25,740.25C1251.08,741.417 1249.67,742 1248,742C1246.33,742 1244.92,741.417 1243.75,740.25Z" style="fill:rgb(194,154,0);fill-rule:nonzero;"/>
            <path d="M1242,736C1242,737.667 1242.58,739.083 1243.75,740.25C1244.92,741.417 1246.33,742 1248,742C1249.67,742 1251.08,741.417 1252.25,740.25C1253.42,739.083 1254,737.667 1254,736C1254,734.333 1253.42,732.917 1252.25,731.75C1251.08,730.583 1249.67,730 1248,730C1246.33,730 1244.92,730.583 1243.75,731.75C1242.58,732.917 1242,734.333 1242,736M1245.2,738.85C1244.4,738.05 1244,737.1 1244,736C1244,734.9 1244.4,733.967 1245.2,733.2C1245.97,732.4 1246.9,732 1248,732C1249.1,732 1250.05,732.4 1250.85,733.2C1251.62,733.967 1252,734.9 1252,736C1252,737.1 1251.62,738.05 1250.85,738.85C1250.05,739.617 1249.1,740 1248,740C1246.9,740 1245.97,739.617 1245.2,738.85Z" style="fill:rgb(255,215,58);fill-rule:nonzero;"/>
            <path d="M1244,736C1244,737.1 1244.4,738.05 1245.2,738.85C1245.97,739.617 1246.9,740 1248,740C1249.1,740 1250.05,739.617 1250.85,738.85C1251.62,738.05 1252,737.1 1252,736C1252,734.9 1251.62,733.967 1250.85,733.2C1250.05,732.4 1249.1,732 1248,732C1246.9,732 1245.97,732.4 1245.2,733.2C1244.4,733.967 1244,734.9 1244,736Z" style="fill:rgb(255,204,0);fill-rule:nonzero;"/>
        </g>
    </g>
</svg>
