<?xml version="1.0" encoding="UTF-8" standalone="no"?>
<!DOCTYPE svg PUBLIC "-//W3C//DTD SVG 1.1//EN" "http://www.w3.org/Graphics/SVG/1.1/DTD/svg11.dtd">
<svg width="100%" height="100%" viewBox="0 0 68 68" version="1.1" xmlns="http://www.w3.org/2000/svg" xmlns:xlink="http://www.w3.org/1999/xlink" xml:space="preserve" xmlns:serif="http://www.serif.com/" style="fill-rule:evenodd;clip-rule:evenodd;stroke-linejoin:round;stroke-miterlimit:2;">
    <g transform="matrix(1,0,0,1,-522.745,-47.7447)">
        <g transform="matrix(0.861062,0,0,0.861062,101.251,11.2051)">
            <circle cx="528.527" cy="81.457" r="37.163" style="fill:white;"/>
            <path d="M528.527,42.436C550.063,42.436 567.548,59.921 567.548,81.457C567.548,102.994 550.063,120.479 528.527,120.479C506.99,120.479 489.505,102.994 489.505,81.457C489.505,59.921 506.99,42.436 528.527,42.436ZM528.527,44.294C508.016,44.294 491.363,60.946 491.363,81.457C491.363,101.968 508.016,118.621 528.527,118.621C549.038,118.621 565.69,101.968 565.69,81.457C565.69,60.946 549.038,44.294 528.527,44.294Z" style="fill:rgb(255,0,3);"/>
        </g>
        <g transform="matrix(1.84974,0,0,1.84974,-476.274,-53.8284)">
            <g transform="matrix(3.22871,0,0,3.22871,64.5641,-342.346)">
                <rect x="152.209" y="124.646" width="1.391" height="8.037" style="fill:rgb(255,7,10);"/>
            </g>
            <g transform="matrix(1.97702e-16,-3.22871,3.22871,1.97702e-16,142.828,566.763)">
                <rect x="152.209" y="124.646" width="1.391" height="8.037" style="fill:rgb(255,7,10);"/>
            </g>
        </g>
    </g>
</svg>
