<?xml version="1.0" encoding="UTF-8" standalone="no"?>
<!DOCTYPE svg PUBLIC "-//W3C//DTD SVG 1.1//EN" "http://www.w3.org/Graphics/SVG/1.1/DTD/svg11.dtd">
<svg width="100%" height="100%" viewBox="0 0 68 68" version="1.1" xmlns="http://www.w3.org/2000/svg" xmlns:xlink="http://www.w3.org/1999/xlink" xml:space="preserve" xmlns:serif="http://www.serif.com/" style="fill-rule:evenodd;clip-rule:evenodd;stroke-linejoin:round;stroke-miterlimit:2;">
    <g transform="matrix(1,0,0,1,-426.697,-40.5987)">
        <g transform="matrix(0.861062,0,0,0.861062,5.20285,4.05907)">
            <circle cx="528.527" cy="81.457" r="37.163" style="fill:white;"/>
            <path d="M528.527,42.436C550.063,42.436 567.548,59.921 567.548,81.457C567.548,102.994 550.063,120.479 528.527,120.479C506.99,120.479 489.505,102.994 489.505,81.457C489.505,59.921 506.99,42.436 528.527,42.436ZM528.527,44.294C508.016,44.294 491.363,60.946 491.363,81.457C491.363,101.968 508.016,118.621 528.527,118.621C549.038,118.621 565.69,101.968 565.69,81.457C565.69,60.946 549.038,44.294 528.527,44.294Z" style="fill:rgb(22,156,140);"/>
        </g>
        <g>
            <g transform="matrix(0.547282,0,0,0.52526,288.938,15.4149)">
                <path d="M285.067,77.475L294.929,65.476L291.462,74.993L296.929,75.036L286.959,86.112L291.069,77.47L285.067,77.475Z" style="fill:rgb(239,255,0);"/>
            </g>
            <g transform="matrix(0.547282,0,0,0.52526,313.032,15.4149)">
                <path d="M285.067,77.475L294.929,65.476L291.462,74.993L296.929,75.036L286.959,86.112L291.069,77.47L285.067,77.475Z" style="fill:rgb(239,255,0);"/>
            </g>
            <g transform="matrix(0.469617,0,0,0.511871,352.815,15.5252)">
                <path d="M191.971,129.778L191.971,125.762C191.971,125.762 191.211,101.535 191.971,95.886C192.241,93.879 194.552,92.3 196.532,91.871C199.62,91.201 207.41,91.201 210.498,91.871C212.477,92.3 214.768,93.882 215.058,95.886C215.818,101.135 215.685,126.995 215.554,129.072C215.539,129.306 215.532,129.541 215.532,129.778C215.532,136.707 221.921,142.333 229.79,142.333C237.659,142.333 244.048,136.707 244.048,129.778C244.048,129.647 244.046,129.517 244.041,129.387C243.956,126.953 243.87,124.994 243.858,122.796C243.827,117.175 243.14,100.819 243.858,95.665C244.122,93.769 246.296,92.273 248.167,91.871C251.104,91.238 258.544,91.238 261.481,91.871C263.352,92.273 265.551,93.766 265.79,95.665C266.509,101.35 265.79,125.984 265.79,125.984L265.79,129.778C265.79,147.715 249.252,162.278 228.881,162.278C208.51,162.278 191.971,147.715 191.971,129.778Z" style="fill:white;"/>
                <path d="M191.971,129.778L191.971,125.762C191.971,125.762 191.211,101.535 191.971,95.886C192.241,93.879 194.552,92.3 196.532,91.871C199.62,91.201 207.41,91.201 210.498,91.871C212.477,92.3 214.768,93.882 215.058,95.886C215.818,101.135 215.685,126.995 215.554,129.072C215.539,129.306 215.532,129.541 215.532,129.778C215.532,136.707 221.921,142.333 229.79,142.333C237.659,142.333 244.048,136.707 244.048,129.778C244.048,129.647 244.046,129.517 244.041,129.387C243.956,126.953 243.87,124.994 243.858,122.796C243.827,117.175 243.14,100.819 243.858,95.665C244.122,93.769 246.296,92.273 248.167,91.871C251.104,91.238 258.544,91.238 261.481,91.871C263.352,92.273 265.551,93.766 265.79,95.665C266.509,101.35 265.79,125.984 265.79,125.984L265.79,129.778C265.79,147.715 249.252,162.278 228.881,162.278C208.51,162.278 191.971,147.715 191.971,129.778ZM198.214,97.531C197.648,104.325 198.357,125.594 198.357,125.594L198.36,125.762L198.36,129.778C198.36,144.549 212.106,156.417 228.881,156.417C245.655,156.417 259.402,144.549 259.402,129.778L259.402,125.984L259.405,125.827C259.405,125.827 260.059,104.588 259.553,97.49C257.18,97.111 252.439,97.112 250.078,97.493C249.586,103.399 250.218,117.654 250.246,122.767C250.258,124.912 250.343,126.824 250.426,129.2C250.433,129.392 250.436,129.585 250.436,129.778C250.436,139.874 241.256,148.194 229.79,148.194C218.324,148.194 209.144,139.874 209.144,129.778C209.144,129.428 209.155,129.08 209.177,128.734C209.297,126.824 209.445,104.105 208.826,97.533C206.34,97.06 200.71,97.06 198.214,97.531Z" style="fill:rgb(0,136,255);"/>
            </g>
            <g transform="matrix(0.547282,0,0,0.52526,333.45,17.0631)">
                <rect x="199.823" y="99.401" width="19.683" height="3.406" style="fill:rgb(255,7,10);"/>
            </g>
            <g transform="matrix(0.505672,0,0,0.52526,366.268,17.0631)">
                <rect x="199.823" y="99.401" width="19.683" height="3.406" style="fill:rgb(255,7,10);"/>
            </g>
        </g>
    </g>
</svg>
