<?xml version="1.0" encoding="UTF-8" standalone="no"?>
<!DOCTYPE svg PUBLIC "-//W3C//DTD SVG 1.1//EN" "http://www.w3.org/Graphics/SVG/1.1/DTD/svg11.dtd">
<svg width="100%" height="100%" viewBox="0 0 68 68" version="1.1" xmlns="http://www.w3.org/2000/svg" xmlns:xlink="http://www.w3.org/1999/xlink" xml:space="preserve" xmlns:serif="http://www.serif.com/" style="fill-rule:evenodd;clip-rule:evenodd;stroke-linejoin:round;stroke-miterlimit:2;">
    <g transform="matrix(1,0,0,1,-601.488,-47.7447)">
        <g transform="matrix(0.861062,0,0,0.861062,179.994,11.2051)">
            <circle cx="528.527" cy="81.457" r="37.163" style="fill:white;"/>
            <path d="M528.527,42.436C550.063,42.436 567.548,59.921 567.548,81.457C567.548,102.994 550.063,120.479 528.527,120.479C506.99,120.479 489.505,102.994 489.505,81.457C489.505,59.921 506.99,42.436 528.527,42.436ZM528.527,44.294C508.016,44.294 491.363,60.946 491.363,81.457C491.363,101.968 508.016,118.621 528.527,118.621C549.038,118.621 565.69,101.968 565.69,81.457C565.69,60.946 549.038,44.294 528.527,44.294Z" style="fill:rgb(255,122,0);"/>
        </g>
        <g transform="matrix(1.25357,0,0,1.25357,108.283,28.3709)">
            <path d="M429.678,24.838L429.678,44.696L421.598,44.696L410.807,59.678L410.807,40.054L420.896,40.054L421.134,24.838L429.678,24.838Z" style="fill:rgb(254,240,0);"/>
            <path d="M430.955,24.838L430.955,44.696C430.955,45.401 430.383,45.972 429.678,45.972L422.252,45.972L411.843,60.424C411.519,60.874 410.942,61.063 410.415,60.893C409.888,60.723 409.531,60.232 409.531,59.678L409.531,40.054C409.531,39.349 410.102,38.777 410.807,38.777L419.64,38.777L419.858,24.818C419.869,24.121 420.437,23.562 421.134,23.562L429.678,23.562C430.383,23.562 430.955,24.133 430.955,24.838ZM429.678,24.838L421.134,24.838L420.896,40.054L410.807,40.054L410.807,59.678L421.598,44.696L429.678,44.696L429.678,24.838Z" style="fill:rgb(255,122,0);"/>
        </g>
    </g>
</svg>
