<?xml version="1.0" encoding="UTF-8" standalone="no"?>
<!DOCTYPE svg PUBLIC "-//W3C//DTD SVG 1.1//EN" "http://www.w3.org/Graphics/SVG/1.1/DTD/svg11.dtd">
<svg width="100%" height="100%" viewBox="0 0 128 128" version="1.1" xmlns="http://www.w3.org/2000/svg" xmlns:xlink="http://www.w3.org/1999/xlink" xml:space="preserve" xmlns:serif="http://www.serif.com/" style="fill-rule:evenodd;clip-rule:evenodd;stroke-linejoin:round;stroke-miterlimit:2;">
    <g transform="matrix(1,0,0,1,-202.115,-327.94)">
        <g transform="matrix(3.15432,0,0,3.15432,-578.276,173.52)">
            <g transform="matrix(0.788832,0,0,0.62521,-54.8396,-294.298)">
                <path d="M417.607,569.163L417.607,593.783C417.607,599.206 414.118,603.609 409.82,603.609C405.522,603.609 402.032,599.206 402.032,593.783L402.032,569.163C402.032,563.74 405.522,559.337 409.82,559.337C414.118,559.337 417.607,563.74 417.607,569.163Z" style="fill:rgb(46,204,113);"/>
                <path d="M417.607,569.163L417.607,593.783C417.607,599.206 414.118,603.609 409.82,603.609C405.522,603.609 402.032,599.206 402.032,593.783L402.032,569.163C402.032,563.74 405.522,559.337 409.82,559.337C414.118,559.337 417.607,563.74 417.607,569.163ZM416.964,569.163C416.964,564.188 413.763,560.149 409.82,560.149C405.877,560.149 402.675,564.188 402.675,569.163L402.675,593.783C402.675,598.758 405.877,602.797 409.82,602.797C413.763,602.797 416.964,598.758 416.964,593.783L416.964,569.163Z" style="fill:rgb(31,138,76);"/>
            </g>
            <g transform="matrix(0.715583,0,0,0.712268,-23.2794,-327.162)">
                <path d="M416.928,549.155C417.317,551.042 420.033,553.716 420.627,555.156C420.963,555.969 420.753,556.484 420.495,557.793C420.387,558.341 419.763,558.565 419.398,559.068C416.904,562.5 416.7,566.725 415.504,567.212L400.878,567.305L400.878,568.73L398.197,568.73C395.023,568.73 392.447,566.141 392.447,562.953L392.447,550.404C392.447,547.216 395.023,544.628 398.197,544.628L400.406,544.638L400.422,546.176C403.596,546.176 414.716,545.962 416.928,549.155Z" style="fill:rgb(31,138,76);"/>
            </g>
            <g transform="matrix(0.268144,0,0,1.10641,148.268,-543.872)">
                <path d="M436.037,549.426L436.037,559.32C436.037,560.042 433.621,560.627 430.644,560.627L419.858,560.627C416.882,560.627 414.466,560.042 414.466,559.32L414.466,549.426C414.466,548.705 416.882,548.119 419.858,548.119L430.644,548.119C433.621,548.119 436.037,548.705 436.037,549.426Z" style="fill:rgb(196,134,71);"/>
            </g>
            <g transform="matrix(0.678404,0,0,0.566691,-1.4537,-243.211)">
                <path d="M404.664,541.714L404.664,561.886C404.664,564.291 403.034,566.242 401.025,566.242L394.314,566.242C392.306,566.242 390.675,564.291 390.675,561.886L390.675,541.714C390.675,539.31 392.306,537.358 394.314,537.358L401.025,537.358C403.034,537.358 404.664,539.31 404.664,541.714Z" style="fill:rgb(159,109,57);"/>
            </g>
            <g transform="matrix(0.864093,0,0,1.03277,-140.761,-568.884)">
                <path d="M474.972,612.435C477.46,611.994 479.739,614.134 480.827,616.345C480.947,616.587 481.679,616.538 481.794,616.758C482.081,617.307 481.92,617.534 481.92,618.133C481.92,618.429 480.918,618.469 480.823,618.739C480.266,620.325 479.08,622.568 476.642,623.264C473.911,624.043 471.496,620.879 471.496,617.942C471.496,615.006 472.175,612.931 474.972,612.435Z" style="fill:rgb(255,208,163);"/>
            </g>
            <g transform="matrix(0.322164,0,0,0.327115,97.8964,-137.695)">
                <path d="M526.377,614.046C539.417,610.638 545.369,620.002 544.911,632.58C544.409,646.369 537.845,654.413 526.377,651.114C516.546,648.287 507.843,642.809 507.843,632.58C507.843,622.351 516.48,616.633 526.377,614.046Z" style="fill:rgb(46,204,113);"/>
            </g>
            <g transform="matrix(0.281853,0,0,0.34737,117.594,-150.639)">
                <path d="M531.95,614.493C542.162,614.973 544.911,622.351 544.911,632.58C544.911,642.809 542.179,651.516 531.95,651.516C521.72,651.516 508.786,642.809 508.786,632.58C508.786,622.351 521.963,614.023 531.95,614.493Z" style="fill:rgb(42,187,103);"/>
            </g>
        </g>
    </g>
</svg>
